<?xml version="1.0" standalone="no"?>
<!DOCTYPE svg PUBLIC "-//W3C//DTD SVG 20010904//EN"
 "http://www.w3.org/TR/2001/REC-SVG-20010904/DTD/svg10.dtd">
<svg version="1.0" xmlns="http://www.w3.org/2000/svg"
 width="50.000000pt" height="50.000000pt" viewBox="0 0 200.000000 200.000000"
 preserveAspectRatio="xMidYMid meet">
<metadata>
Created by potrace 1.16, written by Peter Selinger 2001-2019
</metadata>
<g transform="translate(0.000000,200.000000) scale(0.100000,-0.100000)"
fill="#FFFFFF" stroke="none">
<path d="M1825 1891 c-28 -26 -189 -101 -305 -141 -25 -9 -161 -44 -210 -54
-20 -4 -28 -15 -38 -51 -14 -51 -68 -117 -112 -135 -25 -10 -29 -17 -24 -34 9
-29 9 -29 41 -13 59 32 123 123 123 178 0 24 18 31 140 59 205 48 375 116 391
158 11 29 8 47 -6 33z"/>
<path d="M200 1872 c0 -12 7 -27 15 -35 26 -26 225 -98 370 -135 l140 -35 19
-58 c20 -63 64 -120 110 -143 62 -31 64 20 3 59 -44 27 -97 95 -97 125 0 30
-18 41 -101 61 -123 29 -243 73 -350 126 -52 26 -97 49 -101 51 -5 2 -8 -5 -8
-16z"/>
<path d="M100 1811 c0 -69 16 -107 56 -135 23 -17 144 -53 233 -71 l66 -13
-90 -1 c-49 0 -119 4 -154 9 -35 6 -66 9 -68 6 -9 -9 40 -94 75 -130 19 -20
46 -39 59 -42 14 -4 80 -4 147 -1 71 4 113 3 101 -2 -23 -10 -159 -38 -218
-44 -21 -3 -40 -7 -43 -9 -17 -18 105 -111 161 -122 34 -7 126 21 182 55 19
12 36 19 39 16 6 -6 -82 -84 -123 -109 -18 -11 -33 -23 -33 -28 0 -10 124 -50
155 -50 15 0 42 15 65 36 50 45 52 31 4 -31 -19 -26 -34 -48 -32 -50 5 -5 31
-7 75 -6 35 1 45 6 57 29 8 15 15 21 16 14 0 -7 -5 -22 -10 -33 -10 -17 -7
-19 20 -19 37 0 37 -4 4 -47 -14 -18 -20 -33 -15 -33 14 0 14 -26 1 -50 -9
-17 -14 -18 -35 -8 -19 8 -28 9 -37 0 -8 -8 -5 -9 11 -5 21 5 30 -11 11 -22
-5 -3 -10 -10 -10 -16 0 -5 9 -4 21 3 17 11 22 10 36 -7 15 -20 15 -19 10 4
-6 25 23 95 30 74 7 -21 20 -15 27 12 4 14 10 25 15 25 12 0 -16 -104 -41
-155 -11 -22 -31 -55 -45 -72 l-24 -33 28 0 c16 0 39 7 51 16 l22 15 0 -62 0
-62 21 19 c12 10 29 34 38 53 l18 34 6 -65 c6 -63 23 -118 37 -118 10 0 28 65
36 129 6 46 9 51 16 32 12 -33 47 -81 60 -81 6 0 8 24 6 60 -1 33 -1 60 2 60
3 0 14 -7 24 -15 22 -16 66 -20 66 -6 0 5 -7 14 -16 22 -22 18 -59 95 -79 163
-19 64 -15 83 9 39 8 -15 15 -22 16 -15 0 22 17 12 30 -18 7 -16 9 -37 6 -46
-5 -14 -4 -15 9 -4 8 7 24 10 36 7 16 -4 18 -3 8 9 -9 11 -7 16 12 23 22 9 22
10 4 10 -12 1 -26 -4 -33 -11 -15 -15 -20 -9 -32 31 -7 26 -6 31 8 31 14 0 14
1 0 13 -16 13 -48 58 -48 67 0 4 14 4 32 2 26 -4 30 -2 25 13 -4 9 -10 29 -13
43 -5 23 -3 21 13 -8 17 -34 20 -35 82 -38 l63 -3 -29 38 c-17 21 -35 48 -42
61 -10 19 -4 17 36 -14 42 -32 52 -35 89 -30 48 6 124 34 124 46 0 4 -17 19
-38 33 -20 15 -57 47 -82 72 l-44 45 65 -34 c35 -19 85 -40 110 -46 41 -10 52
-9 96 10 41 17 149 108 133 111 -3 0 -27 3 -55 5 -55 6 -225 43 -225 50 0 2
57 1 128 -2 116 -5 130 -4 159 14 32 21 79 84 101 136 12 28 12 28 -15 22 -15
-4 -86 -9 -158 -11 l-130 -5 64 15 c115 26 212 58 237 77 22 18 24 27 24 98
l0 79 -94 -45 c-109 -51 -295 -114 -413 -140 l-83 -17 -14 -51 c-18 -61 -73
-129 -127 -156 -36 -19 -39 -19 -48 -2 -13 25 -33 142 -27 158 3 8 12 14 21
14 8 0 15 6 15 13 0 20 -21 37 -47 37 -12 0 -33 5 -45 11 -16 7 -32 7 -50 0
-27 -10 -31 -18 -77 -178 l-21 -72 -32 11 c-52 18 -113 87 -135 154 l-20 59
-124 31 c-163 42 -283 85 -396 143 l-93 48 0 -66z"/>
<path d="M856 425 c-9 -25 -7 -258 3 -273 5 -8 23 -12 47 -10 l39 3 0 145 0
145 -41 3 c-31 2 -43 -1 -48 -13z"/>
<path d="M1000 290 c0 -93 4 -150 10 -150 6 0 10 27 10 61 0 52 2 60 18 57 12
-2 19 -18 26 -61 5 -31 12 -57 15 -57 8 0 12 259 5 283 -4 12 -16 17 -45 17
l-39 0 0 -150z"/>
</g>
</svg>
